<svg xmlns="http://www.w3.org/2000/svg" fill="none" viewBox="0 0 96 96" height="96" width="96">
<g opacity="0.5">
<path fill="#AEB4BC" d="M30 41H24V47H30V41Z"></path>
<path fill="#AEB4BC" d="M54.5 41H36V47H54.5V41Z"></path>
</g>
<path fill="#AEB4BC" d="M8.48047 12H88.4795V16H8.48047V12Z" opacity="0.5"></path>
<path fill="#AEB4BC" d="M59.5819 36.3235C59.5819 33.3834 61.9675 31 64.9103 31C67.8531 31 70.2387 33.3834 70.2387 36.3235V50.5196H77.3432C83.2288 50.5196 88 55.2865 88 61.1667V78.9118H59.6711L59.5828 79L42 61.4332L44.5118 58.9237C47.2863 56.1517 51.7847 56.1517 54.5591 58.9237L59.5819 63.9419V36.3235Z" clip-rule="evenodd" fill-rule="evenodd" opacity="0.5"></path>
<path fill="#F0B90B" d="M88 73V84L52 84L52 73L88 73Z"></path>
<path fill="#AEB4BC" d="M8.48047 16H88.4795V78H87.9993V73V61.1667C87.9993 56.2029 84.5994 52.0325 79.9993 50.8531V25H17.9993V51H59.5812V63.9419L54.5584 58.9237C51.7839 56.1517 47.2856 56.1517 44.5111 58.9237L41.9993 61.4332L53.5766 73H51.9993V78H8.48047V16Z" clip-rule="evenodd" fill-rule="evenodd" opacity="0.2"></path>
</svg>
