<svg xmlns="http://www.w3.org/2000/svg" fill="none" viewBox="0 0 96 96" height="96" width="96">
<path fill="#929AA5" d="M35.5441 88.001C30.8769 87.9867 25.5165 86.1331 20 80.6166V52.001H43.6999L58.1893 66.4904C54.5726 70.1071 48.7087 70.1071 45.092 66.4904L38.8986 60.2969L36.88 62.3155L46.4857 72.0247L76 72.0247C76 80.8418 68.8524 87.9894 60.0353 87.9894L35.7742 88.001H35.5441Z" clip-rule="evenodd" fill-rule="evenodd" opacity="0.2"></path>
<path fill="#AEB4BC" d="M8 52.001L20 52.001L20 88.001L8 88.001L8 52.001Z" opacity="0.5"></path>
<path fill="#F0B90B" d="M68 12C79.0457 12 88 20.9543 88 32C88 43.0457 79.0457 52 68 52C56.9543 52 48 43.0457 48 32C48 20.9543 56.9543 12 68 12ZM68 40.0001L60 32.0001L68 24.0001L76 32.0001L68 40.0001Z" clip-rule="evenodd" fill-rule="evenodd"></path>
</svg>
