<svg xmlns="http://www.w3.org/2000/svg" fill="none" viewBox="0 0 96 96" height="96" width="96">
<path fill="#AEB4BC" d="M7.68359 16.0654H87.6826V20.0654H7.68359V16.0654Z" opacity="0.5"></path>
<path fill="#F0B90B" d="M18.0488 37.2604H22.2957L25.0414 57.379H45.2064V54.184H27.83L27.4682 51.5329H34.996H35.0616H44.9905L46.904 39.9113H35.0616H34.996H25.8821L25.0843 34.0654H18.0488V37.2604ZM27.9831 66.0655C29.7752 66.0655 31.228 64.6127 31.228 62.8205C31.228 61.0284 29.7752 59.5756 27.9831 59.5756C26.191 59.5756 24.7381 61.0284 24.7381 62.8205C24.7381 64.6127 26.191 66.0655 27.9831 66.0655ZM41.9614 66.0655C43.7536 66.0655 45.2064 64.6127 45.2064 62.8205C45.2064 61.0284 43.7536 59.5756 41.9614 59.5756C40.1693 59.5756 38.7165 61.0284 38.7165 62.8205C38.7165 64.6127 40.1693 66.0655 41.9614 66.0655Z" clip-rule="evenodd" fill-rule="evenodd"></path>
<path fill="#AEB4BC" d="M7.68359 20.0654H87.6831V80.0654H7.68359V20.0654ZM51.5488 28.0654H15.5488V72.0654H51.5488V28.0654ZM60.0488 28.0654H80.0488V32.0654H60.0488V28.0654ZM60.0488 36.0654H80.0488V40.0654H60.0488V36.0654Z" clip-rule="evenodd" fill-rule="evenodd" opacity="0.2"></path>
<path fill="#F0B90B" d="M71.2466 54.8795L76.0603 50.0658L62.582 50.0658L62.582 63.544L67.3957 58.7304L74.5803 65.915L78.4312 62.0641L71.2466 54.8795Z"></path>
</svg>
